<mxfile host="app.diagrams.net" agent="Mozilla/5.0 (Windows NT 10.0; Win64; x64; rv:143.0) Gecko/20100101 Firefox/143.0" version="28.2.4">
  <diagram name="Page-1" id="z2iFrrbaOqWabhNny43n">
    <mxGraphModel dx="936" dy="1873" grid="1" gridSize="10" guides="1" tooltips="1" connect="1" arrows="1" fold="1" page="1" pageScale="1" pageWidth="850" pageHeight="1100" math="0" shadow="0">
      <root>
        <mxCell id="0" />
        <mxCell id="1" parent="0" />
        <mxCell id="ebSoF5TjbBvANd1B7xwj-2" value="ISP 1" style="ellipse;whiteSpace=wrap;html=1;" vertex="1" parent="1">
          <mxGeometry x="365" y="90" width="60" height="40" as="geometry" />
        </mxCell>
        <mxCell id="ebSoF5TjbBvANd1B7xwj-3" value="ISP 2" style="ellipse;whiteSpace=wrap;html=1;" vertex="1" parent="1">
          <mxGeometry x="500" y="90" width="60" height="40" as="geometry" />
        </mxCell>
        <mxCell id="ebSoF5TjbBvANd1B7xwj-4" value="" style="endArrow=classic;html=1;rounded=0;fontSize=12;startSize=8;endSize=8;curved=1;entryX=0.5;entryY=0;entryDx=0;entryDy=0;exitX=0;exitY=1;exitDx=0;exitDy=0;" edge="1" parent="1" target="ebSoF5TjbBvANd1B7xwj-2">
          <mxGeometry width="50" height="50" relative="1" as="geometry">
            <mxPoint x="410" y="70" as="sourcePoint" />
            <mxPoint x="390" y="40" as="targetPoint" />
          </mxGeometry>
        </mxCell>
        <mxCell id="ebSoF5TjbBvANd1B7xwj-5" value="" style="endArrow=classic;html=1;rounded=0;fontSize=12;startSize=8;endSize=8;curved=1;entryX=0;entryY=0;entryDx=0;entryDy=0;exitX=1;exitY=1;exitDx=0;exitDy=0;" edge="1" parent="1" target="ebSoF5TjbBvANd1B7xwj-3">
          <mxGeometry width="50" height="50" relative="1" as="geometry">
            <mxPoint x="490" y="70" as="sourcePoint" />
            <mxPoint x="480" y="80" as="targetPoint" />
          </mxGeometry>
        </mxCell>
        <mxCell id="ebSoF5TjbBvANd1B7xwj-6" value="EDGE FIREWALLS (HA)" style="rounded=0;whiteSpace=wrap;html=1;" vertex="1" parent="1">
          <mxGeometry x="410" y="170" width="110" height="40" as="geometry" />
        </mxCell>
        <mxCell id="ebSoF5TjbBvANd1B7xwj-7" value="" style="endArrow=classic;html=1;rounded=0;fontSize=12;startSize=8;endSize=8;curved=1;entryX=0.25;entryY=0;entryDx=0;entryDy=0;exitX=0.5;exitY=1;exitDx=0;exitDy=0;" edge="1" parent="1" source="ebSoF5TjbBvANd1B7xwj-2" target="ebSoF5TjbBvANd1B7xwj-6">
          <mxGeometry width="50" height="50" relative="1" as="geometry">
            <mxPoint x="350" y="200" as="sourcePoint" />
            <mxPoint x="400" y="150" as="targetPoint" />
          </mxGeometry>
        </mxCell>
        <mxCell id="ebSoF5TjbBvANd1B7xwj-8" style="edgeStyle=none;curved=1;rounded=0;orthogonalLoop=1;jettySize=auto;html=1;exitX=0.75;exitY=1;exitDx=0;exitDy=0;fontSize=12;startSize=8;endSize=8;" edge="1" parent="1" source="ebSoF5TjbBvANd1B7xwj-6" target="ebSoF5TjbBvANd1B7xwj-6">
          <mxGeometry relative="1" as="geometry" />
        </mxCell>
        <mxCell id="ebSoF5TjbBvANd1B7xwj-9" value="" style="endArrow=classic;html=1;rounded=0;fontSize=12;startSize=8;endSize=8;curved=1;entryX=0.75;entryY=0;entryDx=0;entryDy=0;exitX=0.5;exitY=1;exitDx=0;exitDy=0;" edge="1" parent="1" source="ebSoF5TjbBvANd1B7xwj-3" target="ebSoF5TjbBvANd1B7xwj-6">
          <mxGeometry width="50" height="50" relative="1" as="geometry">
            <mxPoint x="540" y="210" as="sourcePoint" />
            <mxPoint x="590" y="160" as="targetPoint" />
          </mxGeometry>
        </mxCell>
        <mxCell id="ebSoF5TjbBvANd1B7xwj-10" value="" style="endArrow=classic;html=1;rounded=0;fontSize=12;startSize=8;endSize=8;curved=1;exitX=0.5;exitY=1;exitDx=0;exitDy=0;" edge="1" parent="1" source="ebSoF5TjbBvANd1B7xwj-6">
          <mxGeometry width="50" height="50" relative="1" as="geometry">
            <mxPoint x="440" y="280" as="sourcePoint" />
            <mxPoint x="465" y="240" as="targetPoint" />
          </mxGeometry>
        </mxCell>
        <mxCell id="ebSoF5TjbBvANd1B7xwj-11" value="CORE ROUTER/L3 SWITCH" style="rounded=0;whiteSpace=wrap;html=1;" vertex="1" parent="1">
          <mxGeometry x="410" y="240" width="120" height="30" as="geometry" />
        </mxCell>
        <mxCell id="ebSoF5TjbBvANd1B7xwj-12" value="LOAD BALANCER" style="rounded=1;whiteSpace=wrap;html=1;" vertex="1" parent="1">
          <mxGeometry x="10" y="330" width="120" height="60" as="geometry" />
        </mxCell>
        <mxCell id="ebSoF5TjbBvANd1B7xwj-13" value="&lt;div&gt;DISTRIBUTION&lt;/div&gt;&lt;div&gt;SWITCHES&lt;/div&gt;" style="rounded=1;whiteSpace=wrap;html=1;" vertex="1" parent="1">
          <mxGeometry x="190" y="340" width="120" height="60" as="geometry" />
        </mxCell>
        <mxCell id="ebSoF5TjbBvANd1B7xwj-14" value="&lt;div&gt;BRANCH A&lt;/div&gt;&lt;div&gt;(firewall + router + switches)&lt;/div&gt;" style="rounded=1;whiteSpace=wrap;html=1;" vertex="1" parent="1">
          <mxGeometry x="365" y="370" width="120" height="60" as="geometry" />
        </mxCell>
        <mxCell id="ebSoF5TjbBvANd1B7xwj-15" value="&lt;br&gt;&lt;div&gt;BRANCH B&lt;/div&gt;&lt;div&gt;(firewall + router + switches)&lt;/div&gt;&lt;div&gt;&lt;br/&gt;&lt;/div&gt;" style="rounded=1;whiteSpace=wrap;html=1;" vertex="1" parent="1">
          <mxGeometry x="530" y="370" width="120" height="60" as="geometry" />
        </mxCell>
        <mxCell id="ebSoF5TjbBvANd1B7xwj-16" value="&lt;br&gt;&lt;div&gt;BRANCH C&lt;/div&gt;&lt;div&gt;(firewall + router + switches)&lt;/div&gt;&lt;div&gt;&lt;br/&gt;&lt;/div&gt;" style="rounded=1;whiteSpace=wrap;html=1;" vertex="1" parent="1">
          <mxGeometry x="710" y="370" width="120" height="60" as="geometry" />
        </mxCell>
        <mxCell id="ebSoF5TjbBvANd1B7xwj-17" style="edgeStyle=none;curved=1;rounded=0;orthogonalLoop=1;jettySize=auto;html=1;exitX=0.75;exitY=0;exitDx=0;exitDy=0;fontSize=12;startSize=8;endSize=8;" edge="1" parent="1" source="ebSoF5TjbBvANd1B7xwj-13" target="ebSoF5TjbBvANd1B7xwj-13">
          <mxGeometry relative="1" as="geometry" />
        </mxCell>
        <mxCell id="ebSoF5TjbBvANd1B7xwj-18" value="" style="endArrow=classic;html=1;rounded=0;fontSize=12;startSize=8;endSize=8;curved=1;entryX=0.663;entryY=-0.044;entryDx=0;entryDy=0;entryPerimeter=0;exitX=0;exitY=1;exitDx=0;exitDy=0;" edge="1" parent="1" source="ebSoF5TjbBvANd1B7xwj-11" target="ebSoF5TjbBvANd1B7xwj-12">
          <mxGeometry width="50" height="50" relative="1" as="geometry">
            <mxPoint x="110" y="300" as="sourcePoint" />
            <mxPoint x="160" y="250" as="targetPoint" />
          </mxGeometry>
        </mxCell>
        <mxCell id="ebSoF5TjbBvANd1B7xwj-19" value="" style="endArrow=classic;html=1;rounded=0;fontSize=12;startSize=8;endSize=8;curved=1;entryX=0.668;entryY=0.003;entryDx=0;entryDy=0;entryPerimeter=0;exitX=0;exitY=1;exitDx=0;exitDy=0;" edge="1" parent="1" source="ebSoF5TjbBvANd1B7xwj-11" target="ebSoF5TjbBvANd1B7xwj-13">
          <mxGeometry width="50" height="50" relative="1" as="geometry">
            <mxPoint x="290" y="340" as="sourcePoint" />
            <mxPoint x="340" y="290" as="targetPoint" />
          </mxGeometry>
        </mxCell>
        <mxCell id="ebSoF5TjbBvANd1B7xwj-20" value="VPN/MPLS" style="endArrow=classic;html=1;rounded=0;fontSize=12;startSize=8;endSize=8;curved=1;entryX=0.75;entryY=0;entryDx=0;entryDy=0;exitX=0.383;exitY=1.135;exitDx=0;exitDy=0;exitPerimeter=0;" edge="1" parent="1" source="ebSoF5TjbBvANd1B7xwj-11" target="ebSoF5TjbBvANd1B7xwj-14">
          <mxGeometry width="50" height="50" relative="1" as="geometry">
            <mxPoint x="410" y="380" as="sourcePoint" />
            <mxPoint x="460" y="330" as="targetPoint" />
          </mxGeometry>
        </mxCell>
        <mxCell id="ebSoF5TjbBvANd1B7xwj-21" value="VPN/MPLS" style="endArrow=classic;html=1;rounded=0;fontSize=12;startSize=8;endSize=8;curved=1;entryX=0.363;entryY=0.017;entryDx=0;entryDy=0;entryPerimeter=0;exitX=0.5;exitY=1;exitDx=0;exitDy=0;" edge="1" parent="1" source="ebSoF5TjbBvANd1B7xwj-11" target="ebSoF5TjbBvANd1B7xwj-15">
          <mxGeometry width="50" height="50" relative="1" as="geometry">
            <mxPoint x="520" y="370" as="sourcePoint" />
            <mxPoint x="570" y="320" as="targetPoint" />
          </mxGeometry>
        </mxCell>
        <mxCell id="ebSoF5TjbBvANd1B7xwj-22" value="VPN/MPLS" style="endArrow=classic;html=1;rounded=0;fontSize=12;startSize=8;endSize=8;curved=1;entryX=0.25;entryY=0;entryDx=0;entryDy=0;exitX=1;exitY=1;exitDx=0;exitDy=0;" edge="1" parent="1" source="ebSoF5TjbBvANd1B7xwj-11" target="ebSoF5TjbBvANd1B7xwj-16">
          <mxGeometry width="50" height="50" relative="1" as="geometry">
            <mxPoint x="690" y="330" as="sourcePoint" />
            <mxPoint x="740" y="280" as="targetPoint" />
          </mxGeometry>
        </mxCell>
        <mxCell id="ebSoF5TjbBvANd1B7xwj-23" value="SIEM" style="rounded=1;whiteSpace=wrap;html=1;" vertex="1" parent="1">
          <mxGeometry x="750" y="260" width="80" height="40" as="geometry" />
        </mxCell>
        <mxCell id="ebSoF5TjbBvANd1B7xwj-24" value="" style="endArrow=classic;html=1;rounded=0;fontSize=12;startSize=8;endSize=8;curved=1;exitX=1;exitY=0.75;exitDx=0;exitDy=0;" edge="1" parent="1" source="ebSoF5TjbBvANd1B7xwj-11" target="ebSoF5TjbBvANd1B7xwj-23">
          <mxGeometry width="50" height="50" relative="1" as="geometry">
            <mxPoint x="600" y="270" as="sourcePoint" />
            <mxPoint x="650" y="220" as="targetPoint" />
          </mxGeometry>
        </mxCell>
        <mxCell id="ebSoF5TjbBvANd1B7xwj-25" value="" style="rounded=0;whiteSpace=wrap;html=1;" vertex="1" parent="1">
          <mxGeometry x="30" y="440" width="80" height="50" as="geometry" />
        </mxCell>
        <mxCell id="ebSoF5TjbBvANd1B7xwj-26" value="" style="endArrow=classic;html=1;rounded=0;fontSize=12;startSize=8;endSize=8;curved=1;entryX=0.5;entryY=0;entryDx=0;entryDy=0;exitX=0.5;exitY=1;exitDx=0;exitDy=0;" edge="1" parent="1" source="ebSoF5TjbBvANd1B7xwj-12" target="ebSoF5TjbBvANd1B7xwj-25">
          <mxGeometry width="50" height="50" relative="1" as="geometry">
            <mxPoint x="30" y="460" as="sourcePoint" />
            <mxPoint x="80" y="410" as="targetPoint" />
          </mxGeometry>
        </mxCell>
        <mxCell id="ebSoF5TjbBvANd1B7xwj-27" value="app servers" style="text;strokeColor=none;align=center;fillColor=none;html=1;verticalAlign=middle;whiteSpace=wrap;rounded=0;fontSize=16;" vertex="1" parent="1">
          <mxGeometry x="40" y="450" width="60" height="30" as="geometry" />
        </mxCell>
        <mxCell id="ebSoF5TjbBvANd1B7xwj-28" value="EPR DB Cluster" style="rounded=0;whiteSpace=wrap;html=1;" vertex="1" parent="1">
          <mxGeometry x="10" y="550" width="100" height="60" as="geometry" />
        </mxCell>
        <mxCell id="ebSoF5TjbBvANd1B7xwj-29" value="Pharmacy Server" style="rounded=0;whiteSpace=wrap;html=1;" vertex="1" parent="1">
          <mxGeometry x="100" y="640" width="100" height="60" as="geometry" />
        </mxCell>
        <mxCell id="ebSoF5TjbBvANd1B7xwj-30" value="Monitoring Server" style="rounded=0;whiteSpace=wrap;html=1;" vertex="1" parent="1">
          <mxGeometry x="170" y="550" width="100" height="60" as="geometry" />
        </mxCell>
        <mxCell id="ebSoF5TjbBvANd1B7xwj-31" value="&lt;div&gt;Access&lt;/div&gt;&lt;div&gt;Switches&lt;/div&gt;" style="rounded=0;whiteSpace=wrap;html=1;" vertex="1" parent="1">
          <mxGeometry x="230" y="460" width="90" height="40" as="geometry" />
        </mxCell>
        <mxCell id="ebSoF5TjbBvANd1B7xwj-32" value="Nurse Stations" style="ellipse;whiteSpace=wrap;html=1;" vertex="1" parent="1">
          <mxGeometry x="320" y="560" width="80" height="40" as="geometry" />
        </mxCell>
        <mxCell id="ebSoF5TjbBvANd1B7xwj-33" value="&lt;div&gt;Patient&lt;/div&gt;&lt;div&gt;Monitors&lt;/div&gt;" style="ellipse;whiteSpace=wrap;html=1;" vertex="1" parent="1">
          <mxGeometry x="425" y="560" width="90" height="40" as="geometry" />
        </mxCell>
        <mxCell id="ebSoF5TjbBvANd1B7xwj-34" value="Staff PCs" style="ellipse;whiteSpace=wrap;html=1;" vertex="1" parent="1">
          <mxGeometry x="545" y="560" width="75" height="40" as="geometry" />
        </mxCell>
        <mxCell id="ebSoF5TjbBvANd1B7xwj-36" value="" style="endArrow=classic;html=1;rounded=0;fontSize=12;startSize=8;endSize=8;curved=1;entryX=0.25;entryY=0;entryDx=0;entryDy=0;exitX=0.5;exitY=1;exitDx=0;exitDy=0;" edge="1" parent="1" source="ebSoF5TjbBvANd1B7xwj-13" target="ebSoF5TjbBvANd1B7xwj-31">
          <mxGeometry width="50" height="50" relative="1" as="geometry">
            <mxPoint x="200" y="460" as="sourcePoint" />
            <mxPoint x="250" y="410" as="targetPoint" />
          </mxGeometry>
        </mxCell>
        <mxCell id="ebSoF5TjbBvANd1B7xwj-38" value="" style="endArrow=classic;html=1;rounded=0;fontSize=12;startSize=8;endSize=8;curved=1;entryX=0.358;entryY=0.075;entryDx=0;entryDy=0;exitX=0.75;exitY=1;exitDx=0;exitDy=0;entryPerimeter=0;" edge="1" parent="1" source="ebSoF5TjbBvANd1B7xwj-31" target="ebSoF5TjbBvANd1B7xwj-32">
          <mxGeometry width="50" height="50" relative="1" as="geometry">
            <mxPoint x="300" y="560" as="sourcePoint" />
            <mxPoint x="350" y="510" as="targetPoint" />
          </mxGeometry>
        </mxCell>
        <mxCell id="ebSoF5TjbBvANd1B7xwj-39" value="" style="endArrow=classic;html=1;rounded=0;fontSize=12;startSize=8;endSize=8;curved=1;entryX=0.5;entryY=0;entryDx=0;entryDy=0;exitX=0.89;exitY=1.069;exitDx=0;exitDy=0;exitPerimeter=0;" edge="1" parent="1" source="ebSoF5TjbBvANd1B7xwj-31" target="ebSoF5TjbBvANd1B7xwj-33">
          <mxGeometry width="50" height="50" relative="1" as="geometry">
            <mxPoint x="350" y="540" as="sourcePoint" />
            <mxPoint x="400" y="490" as="targetPoint" />
          </mxGeometry>
        </mxCell>
        <mxCell id="ebSoF5TjbBvANd1B7xwj-40" value="" style="endArrow=classic;html=1;rounded=0;fontSize=12;startSize=8;endSize=8;curved=1;entryX=0.5;entryY=0;entryDx=0;entryDy=0;exitX=1;exitY=1;exitDx=0;exitDy=0;" edge="1" parent="1" source="ebSoF5TjbBvANd1B7xwj-31" target="ebSoF5TjbBvANd1B7xwj-34">
          <mxGeometry width="50" height="50" relative="1" as="geometry">
            <mxPoint x="390" y="520" as="sourcePoint" />
            <mxPoint x="440" y="470" as="targetPoint" />
          </mxGeometry>
        </mxCell>
        <mxCell id="ebSoF5TjbBvANd1B7xwj-41" value="" style="endArrow=classic;html=1;rounded=0;fontSize=12;startSize=8;endSize=8;curved=1;entryX=0.394;entryY=0.028;entryDx=0;entryDy=0;entryPerimeter=0;exitX=0.25;exitY=1;exitDx=0;exitDy=0;" edge="1" parent="1" source="ebSoF5TjbBvANd1B7xwj-25" target="ebSoF5TjbBvANd1B7xwj-28">
          <mxGeometry width="50" height="50" relative="1" as="geometry">
            <mxPoint x="10" y="540" as="sourcePoint" />
            <mxPoint x="60" y="490" as="targetPoint" />
          </mxGeometry>
        </mxCell>
        <mxCell id="ebSoF5TjbBvANd1B7xwj-42" value="" style="endArrow=classic;html=1;rounded=0;fontSize=12;startSize=8;endSize=8;curved=1;entryX=0.5;entryY=0;entryDx=0;entryDy=0;exitX=1;exitY=1;exitDx=0;exitDy=0;" edge="1" parent="1" source="ebSoF5TjbBvANd1B7xwj-25" target="ebSoF5TjbBvANd1B7xwj-30">
          <mxGeometry width="50" height="50" relative="1" as="geometry">
            <mxPoint x="120" y="550" as="sourcePoint" />
            <mxPoint x="170" y="500" as="targetPoint" />
          </mxGeometry>
        </mxCell>
        <mxCell id="ebSoF5TjbBvANd1B7xwj-43" value="" style="endArrow=classic;html=1;rounded=0;fontSize=12;startSize=8;endSize=8;curved=1;entryX=0.397;entryY=0.003;entryDx=0;entryDy=0;entryPerimeter=0;exitX=0.901;exitY=1.067;exitDx=0;exitDy=0;exitPerimeter=0;" edge="1" parent="1" source="ebSoF5TjbBvANd1B7xwj-25" target="ebSoF5TjbBvANd1B7xwj-29">
          <mxGeometry width="50" height="50" relative="1" as="geometry">
            <mxPoint x="100" y="580" as="sourcePoint" />
            <mxPoint x="150" y="530" as="targetPoint" />
          </mxGeometry>
        </mxCell>
        <mxCell id="ebSoF5TjbBvANd1B7xwj-45" value="SAN/NAS Storage" style="shape=cylinder3;whiteSpace=wrap;html=1;boundedLbl=1;backgroundOutline=1;size=15;" vertex="1" parent="1">
          <mxGeometry x="410" y="670" width="95" height="60" as="geometry" />
        </mxCell>
        <mxCell id="ebSoF5TjbBvANd1B7xwj-46" value="" style="endArrow=classic;html=1;rounded=0;fontSize=12;startSize=8;endSize=8;curved=1;entryX=0;entryY=0;entryDx=0;entryDy=37.5;entryPerimeter=0;exitX=1;exitY=0.5;exitDx=0;exitDy=0;" edge="1" parent="1" source="ebSoF5TjbBvANd1B7xwj-29" target="ebSoF5TjbBvANd1B7xwj-45">
          <mxGeometry width="50" height="50" relative="1" as="geometry">
            <mxPoint x="240" y="760" as="sourcePoint" />
            <mxPoint x="290" y="710" as="targetPoint" />
          </mxGeometry>
        </mxCell>
        <mxCell id="ebSoF5TjbBvANd1B7xwj-47" value="Cloud Storage" style="ellipse;shape=cloud;whiteSpace=wrap;html=1;" vertex="1" parent="1">
          <mxGeometry x="640" y="660" width="120" height="80" as="geometry" />
        </mxCell>
        <mxCell id="ebSoF5TjbBvANd1B7xwj-48" value="replication" style="endArrow=classic;html=1;rounded=0;fontSize=12;startSize=8;endSize=8;curved=1;entryX=0.09;entryY=0.54;entryDx=0;entryDy=0;entryPerimeter=0;exitX=1;exitY=0.5;exitDx=0;exitDy=0;exitPerimeter=0;" edge="1" parent="1" source="ebSoF5TjbBvANd1B7xwj-45" target="ebSoF5TjbBvANd1B7xwj-47">
          <mxGeometry width="50" height="50" relative="1" as="geometry">
            <mxPoint x="557.5" y="700" as="sourcePoint" />
            <mxPoint x="607.5" y="650" as="targetPoint" />
          </mxGeometry>
        </mxCell>
        <mxCell id="ebSoF5TjbBvANd1B7xwj-56" value="" style="curved=1;endArrow=classic;html=1;rounded=0;fontSize=12;startSize=8;endSize=8;exitX=0.5;exitY=1;exitDx=0;exitDy=0;entryX=0.4;entryY=0.1;entryDx=0;entryDy=0;entryPerimeter=0;" edge="1" parent="1" source="ebSoF5TjbBvANd1B7xwj-14" target="ebSoF5TjbBvANd1B7xwj-47">
          <mxGeometry width="50" height="50" relative="1" as="geometry">
            <mxPoint x="510" y="510" as="sourcePoint" />
            <mxPoint x="740" y="650" as="targetPoint" />
            <Array as="points">
              <mxPoint x="670" y="510" />
            </Array>
          </mxGeometry>
        </mxCell>
        <mxCell id="ebSoF5TjbBvANd1B7xwj-58" value="" style="endArrow=classic;html=1;rounded=0;fontSize=12;startSize=8;endSize=8;curved=1;exitX=0.402;exitY=1.052;exitDx=0;exitDy=0;exitPerimeter=0;entryX=0.709;entryY=0.187;entryDx=0;entryDy=0;entryPerimeter=0;" edge="1" parent="1" source="ebSoF5TjbBvANd1B7xwj-15" target="ebSoF5TjbBvANd1B7xwj-47">
          <mxGeometry width="50" height="50" relative="1" as="geometry">
            <mxPoint x="720" y="520" as="sourcePoint" />
            <mxPoint x="770" y="470" as="targetPoint" />
            <Array as="points">
              <mxPoint x="720" y="540" />
            </Array>
          </mxGeometry>
        </mxCell>
        <mxCell id="ebSoF5TjbBvANd1B7xwj-59" value="" style="endArrow=classic;html=1;rounded=0;fontSize=12;startSize=8;endSize=8;curved=1;entryX=0.88;entryY=0.25;entryDx=0;entryDy=0;entryPerimeter=0;exitX=0.393;exitY=1.005;exitDx=0;exitDy=0;exitPerimeter=0;" edge="1" parent="1" source="ebSoF5TjbBvANd1B7xwj-16" target="ebSoF5TjbBvANd1B7xwj-47">
          <mxGeometry width="50" height="50" relative="1" as="geometry">
            <mxPoint x="710" y="530" as="sourcePoint" />
            <mxPoint x="760" y="480" as="targetPoint" />
            <Array as="points">
              <mxPoint x="770" y="560" />
            </Array>
          </mxGeometry>
        </mxCell>
        <mxCell id="ebSoF5TjbBvANd1B7xwj-60" value="INTERNET" style="ellipse;shape=cloud;whiteSpace=wrap;html=1;" vertex="1" parent="1">
          <mxGeometry x="385" y="10" width="120" height="80" as="geometry" />
        </mxCell>
        <mxCell id="ebSoF5TjbBvANd1B7xwj-61" value="LTE /4G BACKUP" style="text;html=1;align=center;verticalAlign=middle;whiteSpace=wrap;rounded=0;" vertex="1" parent="1">
          <mxGeometry x="670" y="600" width="90" height="30" as="geometry" />
        </mxCell>
        <mxCell id="ebSoF5TjbBvANd1B7xwj-62" value="AMANI HOSPITAL NETWORK LAYOUT DIAGRAM" style="text;html=1;align=center;verticalAlign=middle;whiteSpace=wrap;rounded=0;fontStyle=5;" vertex="1" parent="1">
          <mxGeometry x="277.5" y="-70" width="295" height="70" as="geometry" />
        </mxCell>
      </root>
    </mxGraphModel>
  </diagram>
</mxfile>
